<?xml version="1.0" encoding="UTF-8"?>
<svg id="a" data-name="Layer 1" xmlns="http://www.w3.org/2000/svg" viewBox="0 0 252.25 297.76">
  <path d="m26.77,256.67c3.34,3.06,5.01,7.31,5.01,12.76s-1.63,9.76-4.89,12.94c-3.26,3.18-8.23,4.76-14.92,4.76H0v-35.05h12.38c6.25,0,11.05,1.53,14.39,4.59Zm-5.74,20.83c1.92-1.81,2.88-4.43,2.88-7.87s-.96-6.09-2.88-7.95c-1.92-1.86-4.87-2.78-8.85-2.78h-4.36v21.31h4.96c3.58,0,6.33-.9,8.25-2.71Z" style="fill: #fff;"/>
  <path d="m60.37,287.13h-7.07v-3.26c-1.94,2.44-4.34,3.66-7.2,3.66s-5.26-.83-7.19-2.48c-1.94-1.65-2.91-3.86-2.91-6.62s1-4.82,3.01-6.19c2.01-1.37,4.75-2.06,8.22-2.06h5.62v-.15c0-2.87-1.52-4.31-4.56-4.31-1.3,0-2.68.26-4.14.78-1.45.52-2.68,1.16-3.69,1.93l-3.36-4.86c3.54-2.57,7.59-3.86,12.13-3.86,3.28,0,5.95.82,8.02,2.46,2.07,1.64,3.11,4.23,3.11,7.77v17.2Zm-7.57-10.28v-1.3h-4.71c-3.01,0-4.51.94-4.51,2.81,0,.97.36,1.71,1.08,2.23.72.52,1.75.78,3.08.78s2.52-.41,3.54-1.23c1.02-.82,1.53-1.91,1.53-3.28Z" style="fill: #fff;"/>
  <path d="m81.43,266.78c-2.24,0-3.91.79-5.01,2.38-1.1,1.59-1.65,3.69-1.65,6.29v11.68h-7.52v-26.98h7.52v3.56c.97-1.1,2.18-2.04,3.63-2.81,1.45-.77,2.93-1.17,4.44-1.2l.05,7.07h-1.45Z" style="fill: #27aae1;"/>
  <path d="m110.51,287.13h-7.07v-3.26c-1.94,2.44-4.34,3.66-7.2,3.66s-5.26-.83-7.19-2.48c-1.94-1.65-2.91-3.86-2.91-6.62s1-4.82,3.01-6.19c2.01-1.37,4.75-2.06,8.22-2.06h5.62v-.15c0-2.87-1.52-4.31-4.56-4.31-1.3,0-2.68.26-4.14.78-1.45.52-2.68,1.16-3.69,1.93l-3.36-4.86c3.54-2.57,7.59-3.86,12.13-3.86,3.28,0,5.95.82,8.02,2.46,2.07,1.64,3.11,4.23,3.11,7.77v17.2Zm-7.57-10.28v-1.3h-4.71c-3.01,0-4.51.94-4.51,2.81,0,.97.36,1.71,1.08,2.23.72.52,1.75.78,3.08.78s2.52-.41,3.54-1.23c1.02-.82,1.53-1.91,1.53-3.28Z" style="fill: #27aae1;"/>
  <path d="m124.9,272.09v15.04h-7.52v-26.98h7.52v3.01c2.27-2.31,4.83-3.46,7.67-3.46s5.22,1,7.15,3.01c1.92,2.01,2.88,4.68,2.88,8.02v16.4h-7.52v-15.24c0-4.14-1.52-6.22-4.56-6.22-1.5,0-2.82.54-3.94,1.63-1.12,1.09-1.68,2.68-1.68,4.79Z" style="fill: #27aae1;"/>
  <path d="m156.94,287.13h-7.52v-37.2h7.52v19.1l8.37-8.92h9.48l-10.28,10.93,10.68,16.1h-8.92l-6.87-10.33-2.46,2.56v7.77Z" style="fill: #27aae1;"/>
  <path d="m179.88,256.72c-.85-.85-1.28-1.9-1.28-3.13s.43-2.28,1.28-3.13c.85-.85,1.9-1.28,3.13-1.28s2.28.43,3.13,1.28c.85.85,1.28,1.9,1.28,3.13s-.43,2.28-1.28,3.13c-.85.85-1.9,1.28-3.13,1.28s-2.28-.43-3.13-1.28Zm6.89,30.41h-7.52v-26.98h7.52v26.98Z" style="fill: #27aae1;"/>
  <path d="m201.41,272.09v15.04h-7.52v-26.98h7.52v3.01c2.27-2.31,4.83-3.46,7.67-3.46s5.22,1,7.15,3.01c1.92,2.01,2.88,4.68,2.88,8.02v16.4h-7.52v-15.24c0-4.14-1.52-6.22-4.56-6.22-1.5,0-2.82.54-3.94,1.63-1.12,1.09-1.68,2.68-1.68,4.79Z" style="fill: #27aae1;"/>
  <path d="m245.88,282.57c-2.37,2.64-5.32,3.96-8.85,3.96s-6.5-1.2-8.92-3.58c-2.42-2.39-3.64-5.58-3.64-9.58s1.25-7.27,3.74-9.83,5.34-3.84,8.55-3.84,5.87,1.32,7.97,3.96v-3.56h7.52v23.52c0,2.41-.42,4.54-1.25,6.42-.84,1.87-1.96,3.34-3.36,4.41-2.78,2.21-6.05,3.31-9.83,3.31-2.01,0-4.05-.33-6.14-.98-2.09-.65-3.92-1.58-5.49-2.78l2.91-5.67c2.47,1.87,5.09,2.81,7.85,2.81s4.94-.69,6.54-2.06c1.6-1.37,2.41-3.54,2.41-6.52Zm-1.05-9.5c0-2.16-.6-3.85-1.81-5.09-1.2-1.24-2.69-1.86-4.46-1.86s-3.3.62-4.59,1.86c-1.29,1.24-1.93,2.93-1.93,5.06s.63,3.87,1.88,5.19c1.25,1.32,2.78,1.98,4.59,1.98s3.31-.65,4.51-1.96c1.2-1.3,1.81-3.03,1.81-5.19Z" style="fill: #27aae1;"/>
</svg>